<svg width="753" height="169" viewBox="0 0 753 169" fill="none" xmlns="http://www.w3.org/2000/svg">
<path d="M79.276 103.56C83.116 100.68 86.668 97.224 89.932 93.192C93.196 89.16 96.172 84.84 98.86 80.232C101.74 75.624 104.236 71.016 106.348 66.408C108.652 61.608 110.668 57 112.396 52.584C114.508 47.784 116.14 42.792 117.292 37.608C118.444 32.424 118.828 27.24 118.444 22.056C118.06 16.488 116.044 13.032 112.396 11.688C108.94 10.344 104.716 10.152 99.724 11.112C94.54 12.072 89.548 13.896 84.748 16.584C80.14 19.08 75.724 22.152 71.5 25.8C67.276 29.448 63.244 33.384 59.404 37.608C55.756 41.64 52.396 45.576 49.324 49.416C42.412 58.056 36.076 67.08 30.316 76.488C24.748 85.704 20.044 95.496 16.204 105.864C14.668 109.32 13.132 113.64 11.596 118.824C10.252 124.008 9.484 129.192 9.292 134.376C9.1 139.56 9.868 144.264 11.596 148.488C13.516 152.712 17.068 155.592 22.252 157.128C27.436 158.664 32.716 159.24 38.092 158.856C43.66 158.472 49.228 157.512 54.796 155.976C60.364 154.632 65.836 152.904 71.212 150.792C76.588 148.68 81.58 146.664 86.188 144.744C91.18 142.632 96.076 140.424 100.876 138.12C105.868 135.624 110.86 133.128 115.852 130.632L130.828 123.432C131.788 122.856 132.94 122.184 134.284 121.416C135.82 120.456 137.356 119.496 138.892 118.536C140.62 117.576 142.252 116.808 143.788 116.232C145.324 115.656 146.668 115.368 147.82 115.368C149.548 115.56 150.508 116.616 150.7 118.536C150.892 120.264 150.22 121.416 148.684 121.992C147.148 123.528 145.132 124.68 142.636 125.448C140.14 126.024 137.932 126.792 136.012 127.752C130.636 130.44 125.26 133.224 119.884 136.104C114.7 138.792 109.324 141.48 103.756 144.168C94.924 148.584 85.9 153 76.684 157.416C67.66 161.832 58.156 165.096 48.172 167.208C43.756 168.168 39.052 168.648 34.06 168.648C29.068 168.648 24.364 167.976 19.948 166.632C15.724 165.288 11.884 163.08 8.428 160.008C5.164 156.936 2.956 152.712 1.804 147.336C0.844 142.728 0.556 137.928 0.94 132.936C1.516 127.944 2.476 123.048 3.82 118.248C5.356 113.256 7.084 108.456 9.004 103.848C11.116 99.24 13.228 94.92 15.34 90.888C24.94 71.304 36.748 53.352 50.764 37.032C53.836 33.576 57.004 30.024 60.268 26.376C63.532 22.728 66.988 19.368 70.636 16.296C74.476 13.032 78.412 10.152 82.444 7.65599C86.668 5.16 91.084 3.336 95.692 2.18399C99.724 0.839993 104.14 0.263992 108.94 0.45599C113.932 0.45599 118.156 1.99199 121.612 5.06399C125.068 8.13599 127.084 11.88 127.66 16.296C128.236 20.52 128.14 24.744 127.372 28.968C125.644 39.144 122.476 49.032 117.868 58.632C113.26 68.232 108.46 77.448 103.468 86.28C100.78 90.696 98.092 95.112 95.404 99.528C92.716 103.752 89.644 107.784 86.188 111.624C84.652 112.584 83.116 112.968 81.58 112.776C80.236 112.392 79.084 111.72 78.124 110.76C77.356 109.8 76.972 108.648 76.972 107.304C76.972 105.96 77.74 104.712 79.276 103.56ZM143.212 116.52C145.516 115.368 148.396 113.928 151.852 112.2C155.5 110.28 159.34 108.456 163.372 106.728C167.404 105 171.244 103.368 174.892 101.832C178.732 100.296 181.9 99.048 184.396 98.088C185.74 97.512 188.14 96.648 191.596 95.496C195.052 94.344 198.7 93.288 202.54 92.328C206.38 91.368 209.932 90.696 213.196 90.312C216.652 89.928 219.148 90.216 220.684 91.176C222.988 93.288 223.372 95.208 221.836 96.936C220.492 98.664 218.764 99.72 216.652 100.104L203.692 101.544C201.004 102.312 198.7 103.272 196.78 104.424C195.052 105.384 193.036 106.632 190.732 108.168C189.772 108.936 188.044 110.568 185.548 113.064C183.244 115.368 180.94 117.96 178.636 120.84C176.332 123.528 174.508 126.216 173.164 128.904C171.82 131.4 171.82 133.224 173.164 134.376C174.316 135.336 176.14 135.528 178.636 134.952C181.324 134.376 184.012 133.512 186.7 132.36C189.388 131.208 191.884 130.056 194.188 128.904C196.492 127.56 198.028 126.6 198.796 126.024C204.364 122.568 208.876 118.92 212.332 115.08C214.06 113.16 215.884 112.968 217.804 114.504C219.916 115.848 220.588 117.768 219.82 120.264C219.436 121.608 218.764 122.76 217.804 123.72C216.844 124.68 215.884 125.64 214.924 126.6C214.156 127.368 213.484 128.52 212.908 130.056C212.14 131.4 211.948 132.456 212.332 133.224C212.716 133.8 213.388 134.184 214.348 134.376C217.036 134.76 220.396 134.568 224.428 133.8C228.46 133.032 232.588 131.976 236.812 130.632C241.228 129.288 245.548 127.752 249.772 126.024C253.996 124.104 257.644 122.376 260.716 120.84C261.484 120.648 262.54 120.168 263.884 119.4C265.228 118.44 266.572 117.672 267.916 117.096C269.452 116.52 270.892 116.232 272.236 116.232C273.58 116.232 274.54 116.808 275.116 117.96C275.884 119.112 275.788 120.168 274.828 121.128C274.06 122.088 272.908 122.952 271.372 123.72C269.836 124.296 268.3 124.872 266.764 125.448C265.228 126.024 264.076 126.504 263.308 126.888C260.044 128.424 256.78 129.96 253.516 131.496C250.252 132.84 246.892 134.28 243.436 135.816C241.132 136.776 238.636 137.928 235.948 139.272C233.26 140.616 230.476 141.768 227.596 142.728C224.716 143.688 221.74 144.36 218.668 144.744C215.788 145.128 213.1 144.84 210.604 143.88C207.34 142.536 205.42 140.712 204.844 138.408C204.268 135.912 204.364 133.32 205.132 130.632L197.356 135.24C194.092 137.16 190.636 139.08 186.988 141C183.532 143.112 179.884 144.36 176.044 144.744C172.588 144.936 169.516 144.168 166.828 142.44C164.14 140.712 162.7 138.024 162.508 134.376C162.508 132.456 163.276 130.056 164.812 127.176C166.348 124.104 168.268 121.032 170.572 117.96C173.068 114.696 175.756 111.72 178.636 109.032C181.516 106.344 184.204 104.328 186.7 102.984C185.356 103.368 183.148 104.232 180.076 105.576C177.196 106.92 173.836 108.552 169.996 110.472C166.348 112.392 162.412 114.408 158.188 116.52C154.156 118.44 150.412 120.264 146.956 121.992C145.996 122.568 145.036 122.76 144.076 122.568C143.116 122.184 142.444 121.704 142.06 121.128C141.484 120.36 141.292 119.592 141.484 118.824C141.484 117.864 142.06 117.096 143.212 116.52ZM270.344 116.232C276.296 113.544 282.056 110.568 287.624 107.304C293.192 104.04 298.76 100.488 304.328 96.648C307.016 91.272 309.992 86.088 313.256 81.096C316.52 76.104 319.688 71.208 322.76 66.408C326.024 61.992 329.288 57.576 332.552 53.16C335.816 48.552 339.176 44.04 342.632 39.624C345.512 35.784 348.584 31.944 351.848 28.104C355.304 24.072 359.24 20.808 363.656 18.312C365.768 17.16 368.36 16.392 371.432 16.008C374.504 15.432 376.616 16.776 377.768 20.04C378.536 22.152 378.536 24.264 377.768 26.376C377.192 28.296 376.232 30.312 374.888 32.424C373.544 34.344 372.104 36.264 370.568 38.184C369.032 39.912 367.784 41.448 366.824 42.792C359.144 53.736 350.504 64.008 340.904 73.608C331.496 83.016 321.32 91.752 310.376 99.816C309.416 102.12 308.264 104.616 306.92 107.304C305.768 109.8 304.712 112.488 303.752 115.368C302.792 118.248 302.12 121.128 301.736 124.008C301.352 126.696 301.448 129.288 302.024 131.784C304.136 131.4 306.056 131.112 307.784 130.92C309.32 130.728 310.76 130.632 312.104 130.632C313.448 130.44 314.312 130.248 314.696 130.056C320.456 128.904 326.12 127.368 331.688 125.448C337.256 123.528 342.728 121.416 348.104 119.112C349.64 118.728 351.464 117.96 353.576 116.808C355.688 115.656 357.512 115.56 359.048 116.52C361.16 118.056 361.448 119.496 359.912 120.84C358.376 121.992 356.936 122.856 355.592 123.432L322.184 135.816C318.92 136.968 315.752 138.216 312.68 139.56C309.608 140.712 306.44 141.384 303.176 141.576C300.296 141.96 297.992 141.576 296.264 140.424C294.536 139.08 293.288 137.448 292.52 135.528C291.944 133.416 291.752 131.208 291.944 128.904C292.136 126.408 292.52 124.104 293.096 121.992C294.44 117.384 296.168 112.776 298.28 108.168C290.408 113.352 282.152 118.056 273.512 122.28C271.592 122.664 270.056 122.088 268.904 120.552C267.56 118.824 268.04 117.384 270.344 116.232ZM328.808 76.776C337.832 68.328 346.088 59.208 353.576 49.416C357.032 45.384 360.296 40.776 363.368 35.592C363.752 34.632 364.328 33.48 365.096 32.136C365.864 30.6 366.536 29.064 367.112 27.528C364.424 28.872 361.832 30.696 359.336 33C357.032 35.304 355.112 37.224 353.576 38.76C349.16 43.176 345.032 47.88 341.192 52.872C337.352 57.672 333.512 62.664 329.672 67.848C327.56 70.92 325.544 73.992 323.624 77.064C321.704 79.944 319.88 82.92 318.152 85.992C319.88 84.648 321.608 83.208 323.336 81.672C325.256 79.944 327.08 78.312 328.808 76.776ZM355 116.232C360.952 113.544 366.712 110.568 372.28 107.304C377.848 104.04 383.416 100.488 388.984 96.648C391.672 91.272 394.648 86.088 397.912 81.096C401.176 76.104 404.344 71.208 407.416 66.408C410.68 61.992 413.944 57.576 417.208 53.16C420.472 48.552 423.832 44.04 427.288 39.624C430.168 35.784 433.24 31.944 436.504 28.104C439.96 24.072 443.896 20.808 448.312 18.312C450.424 17.16 453.016 16.392 456.088 16.008C459.16 15.432 461.272 16.776 462.424 20.04C463.192 22.152 463.192 24.264 462.424 26.376C461.848 28.296 460.888 30.312 459.544 32.424C458.2 34.344 456.76 36.264 455.224 38.184C453.688 39.912 452.44 41.448 451.48 42.792C443.8 53.736 435.16 64.008 425.56 73.608C416.152 83.016 405.976 91.752 395.032 99.816C394.072 102.12 392.92 104.616 391.576 107.304C390.424 109.8 389.368 112.488 388.408 115.368C387.448 118.248 386.776 121.128 386.392 124.008C386.008 126.696 386.104 129.288 386.68 131.784C388.792 131.4 390.712 131.112 392.44 130.92C393.976 130.728 395.416 130.632 396.76 130.632C398.104 130.44 398.968 130.248 399.352 130.056C405.112 128.904 410.776 127.368 416.344 125.448C421.912 123.528 427.384 121.416 432.76 119.112C434.296 118.728 436.12 117.96 438.232 116.808C440.344 115.656 442.168 115.56 443.704 116.52C445.816 118.056 446.104 119.496 444.568 120.84C443.032 121.992 441.592 122.856 440.248 123.432L406.84 135.816C403.576 136.968 400.408 138.216 397.336 139.56C394.264 140.712 391.096 141.384 387.832 141.576C384.952 141.96 382.648 141.576 380.92 140.424C379.192 139.08 377.944 137.448 377.176 135.528C376.6 133.416 376.408 131.208 376.6 128.904C376.792 126.408 377.176 124.104 377.752 121.992C379.096 117.384 380.824 112.776 382.936 108.168C375.064 113.352 366.808 118.056 358.168 122.28C356.248 122.664 354.712 122.088 353.56 120.552C352.216 118.824 352.696 117.384 355 116.232ZM413.464 76.776C422.488 68.328 430.744 59.208 438.232 49.416C441.688 45.384 444.952 40.776 448.024 35.592C448.408 34.632 448.984 33.48 449.752 32.136C450.52 30.6 451.192 29.064 451.768 27.528C449.08 28.872 446.488 30.696 443.992 33C441.688 35.304 439.768 37.224 438.232 38.76C433.816 43.176 429.688 47.88 425.848 52.872C422.008 57.672 418.168 62.664 414.328 67.848C412.216 70.92 410.2 73.992 408.28 77.064C406.36 79.944 404.536 82.92 402.808 85.992C404.536 84.648 406.264 83.208 407.992 81.672C409.912 79.944 411.736 78.312 413.464 76.776ZM439.656 116.232C444.648 114.696 449.544 112.872 454.344 110.76C459.144 108.456 463.944 106.248 468.744 104.136C469.896 103.56 471.624 102.504 473.928 100.968C476.424 99.24 478.92 97.704 481.416 96.36C483.912 95.016 486.216 94.152 488.328 93.768C490.632 93.192 492.36 93.768 493.512 95.496C494.472 97.032 494.568 98.568 493.8 100.104C493.224 101.448 492.264 102.888 490.92 104.424C489.576 105.768 488.136 107.112 486.6 108.456C485.064 109.608 483.912 110.568 483.144 111.336C480.264 114.216 477.48 117.384 474.792 120.84C472.104 124.296 470.76 127.944 470.76 131.784C474.216 131.784 477.864 130.92 481.704 129.192C485.544 127.464 488.904 126.024 491.784 124.872C501 120.648 510.12 115.848 519.144 110.472C524.136 107.4 528.648 104.328 532.68 101.256C534.408 100.104 536.136 100.104 537.864 101.256C539.784 102.408 540.552 104.136 540.168 106.44C539.784 108.168 538.92 109.896 537.576 111.624C536.424 113.16 535.368 114.792 534.408 116.52C533.448 118.056 532.488 120.168 531.528 122.856C530.76 125.544 530.76 127.944 531.528 130.056C533.64 131.208 536.232 131.4 539.304 130.632C542.376 129.672 544.872 128.904 546.792 128.328C555.048 125.448 562.728 122.184 569.832 118.536C571.176 117.96 572.808 117.192 574.728 116.232C576.84 115.08 578.376 115.464 579.336 117.384C580.296 119.112 580.104 120.456 578.76 121.416C577.608 122.184 576.36 122.856 575.016 123.432L556.008 132.36C551.976 134.088 547.56 136.104 542.76 138.408C537.96 140.52 533.16 141 528.36 139.848C524.904 138.888 522.888 136.968 522.312 134.088C521.928 131.016 522.216 128.136 523.176 125.448L527.496 115.08C522.504 117.384 517.608 119.784 512.808 122.28C508.2 124.776 503.4 127.08 498.408 129.192C496.296 130.344 493.8 131.784 490.92 133.512C488.04 135.048 484.968 136.584 481.704 138.12C478.632 139.464 475.56 140.424 472.488 141C469.416 141.768 466.728 141.672 464.424 140.712C462.12 139.944 460.872 138.504 460.68 136.392C460.68 134.088 461.256 131.496 462.408 128.616C463.56 125.736 465.192 122.664 467.304 119.4C469.416 116.136 471.624 112.968 473.928 109.896L467.016 113.064C459.144 115.944 453.48 118.152 450.024 119.688C446.568 121.224 443.88 122.184 441.96 122.568C440.808 122.952 439.944 122.856 439.368 122.28C438.6 121.704 438.12 121.032 437.928 120.264C437.544 119.496 437.544 118.728 437.928 117.96C438.12 117.192 438.696 116.616 439.656 116.232ZM574.361 116.52C578.778 114.024 583.194 111.72 587.61 109.608C592.026 107.496 596.442 105.384 600.858 103.272C602.202 102.696 604.026 101.832 606.33 100.68C608.826 99.336 611.418 98.088 614.106 96.936C616.794 95.784 619.386 94.92 621.882 94.344C624.378 93.768 626.394 93.864 627.93 94.632C629.658 95.784 630.426 97.128 630.234 98.664C630.234 100.2 629.658 101.832 628.506 103.56C627.546 105.288 626.394 106.92 625.05 108.456C623.706 109.992 622.746 111.24 622.17 112.2C621.21 113.736 620.25 115.368 619.29 117.096C618.522 118.824 617.658 120.552 616.698 122.28C621.114 118.824 624.954 115.848 628.218 113.352C631.674 110.664 634.746 108.36 637.434 106.44C640.122 104.52 642.618 102.888 644.922 101.544C647.418 100.2 649.914 99.048 652.41 98.088C655.29 96.936 658.074 96.936 660.762 98.088C663.45 99.048 664.41 101.448 663.642 105.288C663.258 107.976 662.586 110.568 661.626 113.064C660.666 115.368 659.514 117.672 658.17 119.976C662.394 117.48 666.618 114.984 670.842 112.488C675.066 109.8 679.386 107.112 683.802 104.424C687.45 102.12 691.29 99.72 695.322 97.224C699.546 94.728 703.866 93.192 708.282 92.616C711.162 92.232 713.466 92.616 715.194 93.768C716.922 94.728 718.074 96.168 718.65 98.088C719.226 99.816 719.322 101.832 718.938 104.136C718.554 106.248 717.786 108.264 716.634 110.184C714.138 114.216 711.642 118.056 709.146 121.704C706.65 125.16 704.346 128.808 702.234 132.648C705.306 133.224 708.858 132.84 712.89 131.496C717.114 130.152 720.474 128.904 722.969 127.752C725.657 126.792 728.154 125.832 730.458 124.872C732.762 123.72 735.162 122.568 737.657 121.416C738.426 121.032 739.29 120.456 740.25 119.688C741.402 118.92 742.554 118.248 743.706 117.672C745.05 116.904 746.298 116.424 747.45 116.232C748.602 115.848 749.658 115.848 750.618 116.232C752.538 117.192 753.018 118.344 752.058 119.688C751.098 121.032 749.562 122.376 747.45 123.72C745.53 124.872 743.418 125.928 741.114 126.888C739.002 127.848 737.562 128.52 736.794 128.904C734.106 130.44 731.418 131.784 728.73 132.936C726.042 134.088 723.354 135.24 720.666 136.392C717.018 137.928 712.986 139.56 708.57 141.288C704.154 143.016 700.026 143.016 696.186 141.288C694.074 140.328 692.73 139.08 692.154 137.544C691.578 136.008 691.386 134.472 691.578 132.936C691.962 131.208 692.634 129.48 693.594 127.752C694.746 126.024 695.898 124.584 697.05 123.432C698.202 122.088 699.546 120.648 701.082 119.112C702.81 117.576 704.346 115.944 705.69 114.216C707.226 112.488 708.378 110.76 709.146 109.032C710.106 107.112 710.394 105.096 710.01 102.984C708.09 102.024 705.69 102.12 702.81 103.272C700.122 104.424 698.01 105.384 696.474 106.152C690.714 108.264 685.146 111.048 679.77 114.504C674.394 117.96 669.21 121.416 664.218 124.872C663.45 125.448 662.106 126.6 660.186 128.328C658.266 129.864 656.25 131.304 654.138 132.648C652.026 133.992 649.914 134.856 647.802 135.24C645.882 135.624 644.538 134.76 643.77 132.648C643.386 131.688 643.482 130.536 644.058 129.192C644.634 127.848 645.402 126.504 646.362 125.16C647.322 123.624 648.282 122.184 649.242 120.84C650.202 119.496 650.874 118.344 651.258 117.384C651.642 116.424 652.122 115.08 652.698 113.352C653.466 111.624 654.042 109.896 654.426 108.168C650.01 109.512 645.882 111.336 642.042 113.64C638.202 115.752 634.458 118.152 630.81 120.84C627.354 123.336 623.898 126.12 620.442 129.192C616.986 132.072 613.434 134.856 609.786 137.544C608.826 138.504 607.674 139.272 606.33 139.848C604.986 140.424 603.642 140.328 602.298 139.56C600.57 138.792 599.61 137.928 599.418 136.968C599.226 135.816 599.418 134.76 599.994 133.8C600.57 132.648 601.338 131.592 602.298 130.632C603.258 129.672 604.026 128.904 604.602 128.328C609.978 121.416 614.298 113.736 617.562 105.288C613.338 106.248 609.21 107.592 605.178 109.32C601.338 110.856 597.594 112.392 593.945 113.928C591.258 115.272 588.57 116.616 585.882 117.96C583.194 119.112 580.506 120.552 577.818 122.28C576.858 122.856 575.898 123.048 574.938 122.856C573.977 122.472 573.305 121.992 572.921 121.416C572.537 120.648 572.441 119.784 572.633 118.824C572.633 117.864 573.209 117.096 574.361 116.52Z" fill="black"/>
</svg>